<svg width="100%" height="100%" viewBox="0 0 60 24" fill="none" xmlns="http://www.w3.org/2000/svg">
<path d="M58 0H2C0.9 0 0 0.9 0 2V21.4C0 22.5 0.9 23.4 2 23.4H58C59.1 23.4 60 22.5 60 21.4V2C60 0.9 59.1 0 58 0ZM13.6 15.4C14.7 15.4 15.7 15 16.4 14.3L16.7 14L18 15.3L17.7 15.6C16.7 16.7 15.2 17.3 13.7 17.3C10.6 17.3 8.3 14.8 8.3 11.5C8.3 8.2 10.6 5.7 13.8 5.8C15.3 5.8 16.7 6.4 17.8 7.5L18 7.7L16.7 9L16.4 8.7C15.6 7.9 14.6 7.5 13.6 7.5C11.4 7.5 9.9 9.2 9.9 11.4C10 13.7 11.5 15.4 13.6 15.4ZM21 17.2H19.1V5.4H21V17.2ZM29.6 17.2H27.7V16.5C27.2 17 26.4 17.2 25.7 17.2C24.8 17.2 24 16.9 23.4 16.4C22.7 15.8 22.4 14.8 22.4 13.7V9.2H24.3V13.8C24.3 14.4 24.5 15.5 25.6 15.5C26.1 15.5 27.6 15.3 27.6 13.5V9.2H29.5V17.2H29.6ZM34.7 11.1H33.3V17.3H31.4V11.1H30V9.2H31.4V6.3H33.3V9.2H34.7V11.1ZM39.1 10.8C37.8 10.8 36.8 11.7 36.8 13.1C36.8 14.4 37.7 15.4 39.1 15.4C39.7 15.4 40.3 15.2 40.7 14.8L41 14.5L42.3 15.8L42 16.2C41.2 16.9 40.2 17.3 39.2 17.3C36.9 17.3 35.1 15.5 35.1 13.2C35.1 10.9 36.9 9.1 39.2 9.1C40.3 9.1 41.3 9.5 42 10.2L42.3 10.5L41 11.7L40.7 11.4C40.3 11 39.7 10.8 39.1 10.8ZM40.4 13.2C40.4 13.9 39.8 14.5 39.1 14.5C38.4 14.5 37.8 13.9 37.8 13.2C37.8 12.5 38.4 11.9 39.1 11.9C39.8 11.8 40.4 12.4 40.4 13.2ZM49.9 17.2H48V12.5C48 11.9 48.1 10.8 46.9 10.8C46.4 10.8 45.1 11 45.1 12.8V17.2H43.2V5.4H45.1V9.7C45.6 9.2 46.3 9 46.9 9C47.8 9 48.4 9.3 49 9.8C49.6 10.4 49.8 11.4 49.8 12.5V17.2H49.9Z" fill="currentColor"/>
</svg>
