<svg width="100%" height="100%" viewBox="0 0 22 22" fill="none" xmlns="http://www.w3.org/2000/svg">
<path fill-rule="evenodd" clip-rule="evenodd" d="M10.8827 0C16.893 0 21.7653 4.87233 21.7653 10.8827C21.7653 16.3144 17.7857 20.8167 12.5831 21.6331V14.0284H15.1188L15.6013 10.8827H12.5831V8.84216C12.5831 8.02107 12.9662 7.22044 14.1726 7.14719C14.2319 7.14359 14.2932 7.14174 14.3566 7.14174H15.7288V4.46359C15.7288 4.46359 15.7261 4.46312 15.7208 4.46223C15.6264 4.44651 14.7196 4.29868 13.7392 4.26017C13.5912 4.25436 13.4416 4.25104 13.2928 4.25104C10.807 4.25104 9.18224 5.75761 9.18224 8.48507V10.8827H6.41907V14.0284H9.18224V21.6331C3.97961 20.8167 0 16.3144 0 10.8827C0 4.87233 4.87233 0 10.8827 0Z" fill="currentColor"/>
</svg>
