<svg width="100%" height="100%" viewBox="0 0 22 22" fill="none" xmlns="http://www.w3.org/2000/svg">
<path fill-rule="evenodd" clip-rule="evenodd" d="M10.8827 1.95973C13.7904 1.95973 14.1347 1.97248 15.2782 2.02349C16.341 2.07026 16.9149 2.2488 17.2975 2.39759C17.8033 2.59313 18.1689 2.83119 18.5473 3.20953C18.9299 3.59213 19.1637 3.95346 19.3592 4.45934C19.508 4.84193 19.6866 5.42007 19.7333 6.47858C19.7843 7.62636 19.7971 7.9707 19.7971 10.8742C19.7971 13.7819 19.7843 14.1262 19.7333 15.2697C19.6866 16.3325 19.508 16.9064 19.3592 17.289C19.1637 17.7948 18.9256 18.1604 18.5473 18.5388C18.1647 18.9214 17.8033 19.1552 17.2975 19.3507C16.9149 19.4995 16.3367 19.6781 15.2782 19.7248C14.1305 19.7758 13.7861 19.7886 10.8827 19.7886C7.97495 19.7886 7.63061 19.7758 6.48708 19.7248C5.42432 19.6781 4.85043 19.4995 4.46784 19.3507C3.96197 19.1552 3.59638 18.9171 3.21804 18.5388C2.83544 18.1562 2.60164 17.7948 2.40609 17.289C2.2573 16.9064 2.07876 16.3282 2.032 15.2697C1.98098 14.1219 1.96823 13.7776 1.96823 10.8742C1.96823 7.96644 1.98098 7.62211 2.032 6.47858C2.07876 5.41582 2.2573 4.84193 2.40609 4.45934C2.60164 3.95346 2.83969 3.58788 3.21804 3.20953C3.60063 2.82694 3.96197 2.59313 4.46784 2.39759C4.85043 2.2488 5.42858 2.07026 6.48708 2.02349C7.63061 1.97248 7.97495 1.95973 10.8827 1.95973ZM10.8827 0C7.92819 0 7.55835 0.0127531 6.39781 0.0637656C5.24153 0.114778 4.44659 0.301824 3.75792 0.569639C3.03949 0.850207 2.43159 1.22005 1.82795 1.82795C1.22005 2.43159 0.850208 3.03949 0.569639 3.75367C0.301824 4.44659 0.114778 5.23728 0.0637656 6.39356C0.0127531 7.55834 0 7.92818 0 10.8827C0 13.8371 0.0127531 14.207 0.0637656 15.3675C0.114778 16.5238 0.301824 17.3187 0.569639 18.0074C0.850208 18.7258 1.22005 19.3337 1.82795 19.9374C2.43159 20.541 3.03949 20.9151 3.75367 21.1914C4.44659 21.4592 5.23728 21.6463 6.39356 21.6973C7.55409 21.7483 7.92393 21.7611 10.8784 21.7611C13.8329 21.7611 14.2027 21.7483 15.3633 21.6973C16.5195 21.6463 17.3145 21.4592 18.0031 21.1914C18.7173 20.9151 19.3252 20.541 19.9289 19.9374C20.5325 19.3337 20.9066 18.7258 21.1829 18.0116C21.4507 17.3187 21.6378 16.528 21.6888 15.3718C21.7398 14.2112 21.7526 13.8414 21.7526 10.8869C21.7526 7.93244 21.7398 7.5626 21.6888 6.40206C21.6378 5.24578 21.4507 4.45084 21.1829 3.76217C20.9151 3.03949 20.5453 2.43159 19.9374 1.82795C19.3337 1.2243 18.7258 0.850207 18.0116 0.57389C17.3187 0.306075 16.528 0.119029 15.3718 0.0680166C14.207 0.0127531 13.8371 0 10.8827 0ZM10.8831 5.29248C7.79683 5.29248 5.29297 7.79634 5.29297 10.8826C5.29297 13.9688 7.79683 16.4727 10.8831 16.4727C13.9693 16.4727 16.4732 13.9688 16.4732 10.8826C16.4732 7.79634 13.9693 5.29248 10.8831 5.29248ZM10.8831 14.5087C8.88085 14.5087 7.25695 12.8848 7.25695 10.8826C7.25695 8.88036 8.88085 7.25646 10.8831 7.25646C12.8853 7.25646 14.5092 8.88036 14.5092 10.8826C14.5092 12.8848 12.8853 14.5087 10.8831 14.5087ZM16.6937 6.37674C17.4122 6.37674 17.9988 5.79435 17.9988 5.07167C17.9988 4.35325 17.4122 3.7666 16.6937 3.7666C15.9753 3.7666 15.3887 4.34899 15.3887 5.07167C15.3887 5.7901 15.9711 6.37674 16.6937 6.37674Z" fill="currentColor"/>
</svg>
