<svg width="100%" height="100%" viewBox="0 0 892 348" fill="none" xmlns="http://www.w3.org/2000/svg">
<path fill-rule="evenodd" clip-rule="evenodd" d="M39.5996 0H852.301C874.1 0 891.9 17.7002 891.801 39.6001V307.5C891.801 329.4 874.1 347.1 852.199 347.1H39.5996C17.6992 347.1 0 329.4 0 307.5V39.6001C0 17.7002 17.6992 0 39.5996 0ZM167.801 217C179.6 206.7 185.301 193.7 185.301 178C185.225 152.789 185.318 127.578 185.412 102.325C185.443 93.8218 185.475 85.314 185.5 76.7998C184.1 75.7002 183.699 75.3999 182.301 74.2998C180.059 74.8062 177.83 75.3647 175.6 75.9238C171.662 76.9106 167.723 77.8979 163.699 78.6001C162.979 78.7329 162.256 78.8477 161.535 78.9624C158.463 79.4517 155.416 79.937 152.5 81.7998V90.1001C152.5 117.4 152.5 144.6 152.4 171.8C152.4 175.7 152 179.7 151.199 183.5C149 193.3 143.199 197.3 132.699 196.9C123.4 196.5 117.5 191.3 116.301 182C115.992 179.598 115.988 177.158 115.984 174.727C115.98 173.211 115.977 171.698 115.9 170.2C115.863 169.486 115.896 168.646 115.932 167.763C115.988 166.295 116.049 164.711 115.801 163.4C110.656 164.257 105.445 165.273 100.307 166.275C94.6543 167.377 89.0898 168.462 83.8008 169.3V182.3C83.8008 186 84.5996 189.6 85.5996 193.1C91.0996 213.2 104.301 225.1 124.699 228.3C140.5 230.8 155.301 227.9 167.801 217ZM190.5 177.8C190.5 210.1 214.801 234.4 247 234.6C278.9 234.9 305.199 210.1 303.801 177.4C305 147.1 281.9 120.8 247.5 120.7C213.6 120.6 190.4 145.5 190.5 177.8ZM375.9 233.2C390.4 232.3 402.199 225.9 410.4 214.3C425.801 192.5 425.9 168.9 414.301 145.8C406.801 130.5 393.1 122.5 375.5 121.8C363.1 121.3 351.801 124 341.5 133V75H336.1C334.801 75.6001 333.5 76.3999 332.199 76.7002C329.039 77.2822 325.879 77.8472 322.732 78.4023C318.312 79.1816 313.922 79.9409 309.6 80.7002C308.1 99.2002 308.699 224.3 310.301 230.9H340.199C340.443 229.678 340.688 228.505 340.939 227.302C341.307 225.551 341.686 223.734 342.1 221.6C351.801 231.8 363.301 234 375.9 233.2ZM529.59 185.599C530.818 185.457 532.045 185.264 533.301 185.1C534.801 174.9 533.699 165.7 531.301 156.7C527.199 142.2 518.801 131.1 504.5 125.7C497.6 123.1 490 121.2 482.6 120.9C457.1 119.7 434 137 428.6 162.6C424.5 182.2 427.1 200.5 440.5 216.2C455 233.2 480.1 239.2 501.801 231.6C516.5 226.5 527.199 216.9 531.6 200.7C527.363 199.49 523.191 198.279 519.055 197.079C514.307 195.701 509.604 194.336 504.9 193C499.6 205.5 487.301 208.9 474.9 205.6C465.5 203.1 459.9 196.2 459.801 186C462.699 185.9 465.6 185.8 468.5 185.8C487.801 185.8 507.199 185.9 526.5 185.8C527.545 185.8 528.568 185.717 529.59 185.599ZM598.262 156.139C599.059 156.1 599.9 156.058 600.801 156C600.801 153.1 600.801 150.7 601 148.4V123.3C598.186 123.603 595.5 123.841 592.914 124.071C586.949 124.601 581.502 125.084 576.199 126.2C552.5 131.3 537.9 150.8 538.9 172.9C539.422 183.924 539.305 194.992 539.189 206.046C539.127 211.937 539.064 217.825 539.1 223.7C539.1 226 539.4 228.3 539.699 231.2C545.301 231.2 550.4 231.4 555.5 231.2C557.107 231.138 558.742 231.21 560.398 231.283C564.098 231.446 567.898 231.613 571.699 230.3V219.9C571.699 216.583 571.688 213.266 571.676 209.949C571.639 199.966 571.6 189.983 571.9 180C572.301 167.3 580.801 158.2 593 156.6C594.633 156.316 596.314 156.234 598.262 156.139ZM672.9 204.2C663.4 204.1 659.801 200.8 659.6 191.2C659.494 186.896 659.5 182.563 659.529 178.248C659.557 174.442 659.6 170.649 659.6 166.9C659.6 163.7 659.699 160.5 659.801 156.4H680C681.6 145.1 681.301 130.6 679.5 124.5C676.807 124.079 674.061 124.136 671.256 124.195C667.393 124.276 663.414 124.359 659.301 123.2V87.7998C653.035 88.9907 647.162 90.1421 641.238 91.3032C637.709 91.9951 634.16 92.6904 630.5 93.3999C630.5 99.5 630.699 104.3 630.4 109.1C629.801 118.2 624.5 123.4 615.5 124.2C613.5 124.3 611.5 124.4 608.699 124.6V140.3V140.351C608.801 145.433 608.9 150.418 609 156C612.762 156.168 616.24 156.337 619.719 156.505C622.436 156.637 625.15 156.769 628 156.9V166.6C628 169.937 627.984 173.282 627.969 176.633C627.928 185.031 627.887 193.466 628.1 201.9C628.5 216.4 636.199 226.9 649.5 231.2C659.1 234.3 669 234.1 678.801 231C679.121 230.872 679.359 230.579 679.752 230.096C679.973 229.825 680.24 229.495 680.6 229.1C680.6 225.6 680.801 221.4 680.6 217.2C680.502 215.762 680.574 214.312 680.646 212.87C680.797 209.9 680.945 206.959 679.6 204.2H672.9ZM806.748 127.594C807.213 126.974 807.678 126.352 808.1 125.7V123.8H773.699C769.24 133.014 765.494 142.399 761.719 151.859C757.871 161.497 753.994 171.211 749.301 180.9C740.725 162.447 732.76 145.123 724.752 127.713L723 123.9C721.336 123.9 719.725 123.894 718.152 123.887C713.582 123.869 709.342 123.851 705.1 124C703.354 124.093 701.6 124.031 699.816 123.968C695.881 123.83 691.807 123.686 687.4 125.2C697.535 146.009 707.486 166.634 717.41 187.201C722.174 197.076 726.932 206.938 731.699 216.8C727.801 225.7 723.801 234.5 720.1 243.4C716 253.1 712.1 262.9 708.199 272.7H740.9C741.734 271 742.59 269.311 743.445 267.622C745.156 264.245 746.867 260.867 748.4 257.4C758.014 235.826 767.568 214.194 777.111 192.592L786.301 171.8L786.342 171.71C792.428 158.041 798.514 144.37 804.699 130.7C805.254 129.59 806 128.594 806.748 127.594ZM468.398 150C463.398 153.6 459.5 157.6 459.898 164.8H501.5C501.5 162.8 501.699 161.9 501.5 161.1C498.299 146.4 478.398 142.8 468.398 150ZM222.801 177.7C223.201 164.7 229 155.6 239.301 152.1C253.201 147.4 267.5 155.2 270.602 169.4C272.201 177.2 271.9 185.1 268.201 192.3C263.701 201.1 254.602 205.4 243.801 204C234.201 202.8 227.9 197.2 224.9 188.2C224.49 186.97 224.191 185.684 223.941 184.373C223.744 183.339 223.578 182.289 223.412 181.239C223.223 180.052 223.033 178.865 222.801 177.7ZM365.299 150.9C378.6 151.4 388.1 159.8 389 173.2C389.1 174.7 389 176.2 389 177.8C389.299 184.3 388.299 190.3 384 195.6C377.699 203.3 367.699 206.5 357.9 203.6C348.9 200.9 342.1 192.7 341.299 183C341.121 181.036 341.156 179.035 341.191 177.042V176.992C341.215 175.654 341.238 174.319 341.199 173C341 161.9 352.6 150.4 365.299 150.9Z" fill="currentColor"/>
</svg>
