<svg width="15" height="15" viewBox="0 0 15 15" fill="none" xmlns="http://www.w3.org/2000/svg">
<path fill-rule="evenodd" clip-rule="evenodd" d="M8.75 1.25C8.75 1.94043 8.18945 2.5 7.5 2.5C6.81055 2.5 6.25 1.94043 6.25 1.25C6.25 0.55957 6.81055 0 7.5 0C8.18945 0 8.75 0.55957 8.75 1.25ZM11.0234 5.36816L11.6504 6.45215L8.75781 8.12012L11.6504 9.79004L11.0234 10.8721L8.12695 9.19824V15H6.87695V9.20801L3.99219 10.8721L3.36523 9.79004L6.25781 8.12012L3.36523 6.45215L3.99219 5.36816L6.87695 7.03418V3.75H8.12695V7.04199L11.0234 5.36816ZM13.75 12.998C14.4395 12.998 15 12.4385 15 11.748C15 11.0576 14.4395 10.498 13.75 10.498C13.0605 10.498 12.5 11.0576 12.5 11.748C12.5 12.0049 12.5762 12.2432 12.709 12.4414C12.7598 12.5156 12.8184 12.585 12.8828 12.6475C13.1074 12.8643 13.4141 12.998 13.75 12.998ZM2.15234 12.6123C1.92578 12.8496 1.60547 12.998 1.25 12.998C0.560547 12.998 0 12.4385 0 11.748C0 11.3281 0.207031 10.957 0.523438 10.7305C0.728516 10.584 0.980469 10.498 1.25 10.498C1.93945 10.498 2.5 11.0576 2.5 11.748C2.5 12.083 2.36719 12.3877 2.15234 12.6123Z" fill="black"/>
</svg>
