<svg width="15" height="15" viewBox="0 0 15 15" fill="none" xmlns="http://www.w3.org/2000/svg">
<path fill-rule="evenodd" clip-rule="evenodd" d="M14.7812 1.95801C14.9199 1.75684 15 1.5127 15 1.25C15 0.55957 14.4395 0 13.75 0C13.5781 0 13.416 0.0341797 13.2676 0.0966797C13.2031 0.123047 13.1426 0.155273 13.0859 0.191406C13.0039 0.243164 12.9277 0.303711 12.8594 0.37207C12.6367 0.597656 12.5 0.908203 12.5 1.25C12.5 1.94043 13.0605 2.5 13.75 2.5C13.9551 2.5 14.1465 2.45117 14.3164 2.36426C14.4258 2.30859 14.5273 2.2373 14.6152 2.15332C14.6777 2.09375 14.7324 2.02832 14.7812 1.95801ZM1.25 15C1.54883 15 1.82227 14.8955 2.03906 14.7207C2.32031 14.4912 2.5 14.1416 2.5 13.75C2.5 13.5459 2.45117 13.3535 2.36523 13.1836C2.27148 13 2.13281 12.8418 1.96484 12.7246C1.76172 12.583 1.51562 12.5 1.25 12.5C0.560547 12.5 0 13.0596 0 13.75C0 14.4404 0.560547 15 1.25 15ZM5.00195 15H8.12695C11.916 15.002 15 11.916 15 8.12598V5.00195H13.75V8.12598C13.75 11.2256 11.2285 13.75 8.12695 13.75H5.00195V15ZM7.5 10.624C5.77539 10.624 4.37695 9.22168 4.37695 7.5C4.37695 5.77832 5.77734 4.37598 7.5 4.37598C9.22266 4.37598 10.623 5.77832 10.623 7.5C10.623 9.22168 9.22266 10.624 7.5 10.624ZM7.5 5.62402C6.4668 5.62402 5.62305 6.46582 5.62305 7.5C5.62305 8.53418 6.4668 9.37402 7.5 9.37402C7.82031 9.37402 8.12305 9.29297 8.38672 9.15039C8.97461 8.83398 9.37695 8.21289 9.37695 7.5C9.37695 6.9082 9.09961 6.37793 8.66797 6.0332C8.34766 5.77734 7.94141 5.62402 7.5 5.62402ZM0 10H1.25L1.24805 6.87598C1.24805 3.77441 3.77148 1.25 6.87305 1.25H10V0H6.87305C3.08398 0 0 3.08398 0 6.87598V10Z" fill="black"/>
</svg>
