<svg width="15" height="15" viewBox="0 0 15 15" fill="none" xmlns="http://www.w3.org/2000/svg">
<path fill-rule="evenodd" clip-rule="evenodd" d="M2.19531 2.2041L3.07617 3.08398C4.21094 1.94824 5.77344 1.24609 7.50195 1.24609C10.9512 1.24609 13.7578 4.05176 13.7578 7.50195C13.7578 10.9521 10.9492 13.7559 7.5 13.7559C5.77734 13.7559 4.2168 13.0557 3.08398 11.9258L2.20312 12.8057C3.5625 14.1602 5.43359 15 7.5 15C11.6367 15 15 11.6357 15 7.5C15 3.36426 11.6367 0 7.5 0C5.42969 0 3.55469 0.841797 2.19531 2.2041ZM3.83789 7.5L1.25 6.00586L0 5.28418V3.8916L6.25 7.5L0 11.1084V9.71582L3.83789 7.5ZM8.13086 5H6.87109V10H8.13086V5Z" fill="black"/>
</svg>
