<svg width="15" height="15" viewBox="0 0 15 15" fill="none" xmlns="http://www.w3.org/2000/svg">
<path fill-rule="evenodd" clip-rule="evenodd" d="M3.12305 6.25C1.40234 6.25 0 4.84766 0 3.12402C0 1.40039 1.40234 0 3.12305 0C4.8457 0 6.24805 1.40234 6.24805 3.12402C6.24805 4.8457 4.8457 6.24805 3.12305 6.25ZM3.12305 1.25C2.08984 1.25 1.24805 2.0918 1.24805 3.12598C1.24805 4.16016 2.08984 5 3.12305 5C4.1582 5 5 4.1582 5 3.12598C5 2.74512 4.88477 2.39062 4.68945 2.09473C4.35352 1.58691 3.77734 1.25 3.12305 1.25ZM11.25 10.624C10.7109 10.624 10.2051 10.4873 9.76172 10.2471C9.30273 9.99707 8.91406 9.63672 8.63086 9.20117C8.3125 8.71094 8.12695 8.12695 8.12695 7.5C8.12695 6.97363 8.25781 6.47754 8.48828 6.04199C8.7207 5.60254 9.05469 5.22461 9.46094 4.94043C9.96875 4.58496 10.5859 4.37598 11.25 4.37598C12.9727 4.37598 14.373 5.77832 14.373 7.5C14.373 9.22168 12.9727 10.624 11.25 10.624ZM9.51562 6.7832C9.42383 7.00391 9.37305 7.24609 9.37305 7.5C9.37305 7.66016 9.39258 7.81641 9.43164 7.96484C9.45312 8.04492 9.47852 8.12305 9.50977 8.19922C9.59766 8.41797 9.72656 8.61719 9.88672 8.78613C10.0742 8.98438 10.3027 9.1416 10.5605 9.24316C10.7754 9.32715 11.0078 9.37402 11.25 9.37402C11.5059 9.37402 11.75 9.32227 11.9727 9.22949C12.2949 9.09473 12.5723 8.87109 12.7754 8.59082C12.9961 8.2832 13.127 7.90625 13.127 7.5C13.127 6.46777 12.2832 5.62402 11.25 5.62402C11.0059 5.62402 10.7734 5.6709 10.5586 5.75586C10.3145 5.85352 10.0957 6 9.91406 6.18359C9.74609 6.35449 9.60938 6.55762 9.51562 6.7832ZM0 11.876C0 13.5977 1.40039 15 3.12305 15C4.8457 15 6.24805 13.5977 6.24805 11.876C6.24805 10.1543 4.8457 8.75195 3.12305 8.75195C1.94141 8.75195 0.910156 9.41309 0.378906 10.3857C0.136719 10.8291 0 11.3369 0 11.876ZM1.24805 11.876C1.24805 10.8418 2.08984 10 3.12305 10C4.1582 10 5 10.8438 5 11.876C5 12.9082 4.1582 13.75 3.12305 13.75C2.08984 13.75 1.24805 12.9102 1.24805 11.876ZM15 0H7.5V1.25H15V0ZM7.5 15V13.75H15V15H7.5Z" fill="black"/>
</svg>
