<svg width="15" height="15" viewBox="0 0 15 15" fill="none" xmlns="http://www.w3.org/2000/svg">
<g clip-path="url(#clip0_1445_912)">
<path d="M11.876 8.75C11.172 8.75 10.524 8.986 10 9.38V5.618C10.524 6.012 11.172 6.248 11.876 6.248C13.6 6.248 15 4.846 15 3.124C15 1.402 13.598 0 11.876 0C10.154 0 8.752 1.402 8.752 3.124C8.752 3.828 8.988 4.476 9.384 5H5.622C6.016 4.476 6.252 3.828 6.252 3.124C6.25 1.402 4.848 0 3.124 0C1.4 0 0 1.402 0 3.124C0 4.846 1.402 6.248 3.124 6.248C3.828 6.248 4.476 6.012 5 5.618V9.38C4.476 8.986 3.828 8.75 3.124 8.75C1.4 8.75 0 10.152 0 11.874C0 13.596 1.402 14.998 3.124 14.998C4.846 14.998 6.248 13.596 6.248 11.874C6.248 11.17 6.012 10.522 5.618 9.998H9.38C8.986 10.52 8.75 11.17 8.75 11.874C8.75 13.598 10.152 14.998 11.874 14.998C13.596 14.998 14.998 13.596 14.998 11.874C14.998 10.152 13.596 8.75 11.874 8.75H11.876ZM11.876 1.25C12.91 1.25 13.752 2.092 13.752 3.126C13.752 4.16 12.91 5.002 11.876 5.002C10.842 5.002 10 4.16 10 3.126C10 2.092 10.842 1.25 11.876 1.25ZM3.124 5C2.09 5 1.248 4.158 1.248 3.124C1.248 2.09 2.092 1.25 3.124 1.25C4.156 1.25 5 2.092 5 3.126C5 4.16 4.158 5.002 3.124 5.002V5ZM3.124 13.75C2.09 13.75 1.248 12.908 1.248 11.874C1.248 10.84 2.09 9.998 3.124 9.998C4.158 9.998 5 10.84 5 11.874C5 12.908 4.158 13.75 3.124 13.75ZM8.748 8.75H6.248V6.25H8.748V8.75ZM11.874 13.75C10.84 13.75 9.998 12.908 9.998 11.874C9.998 10.84 10.84 9.998 11.874 9.998C12.908 9.998 13.75 10.84 13.75 11.874C13.75 12.908 12.908 13.75 11.874 13.75Z" fill="black"/>
</g>
<defs>
<clipPath id="clip0_1445_912">
<rect width="15" height="15" fill="white"/>
</clipPath>
</defs>
</svg>
