<svg width="15" height="15" viewBox="0 0 15 15" fill="none" xmlns="http://www.w3.org/2000/svg">
<g clip-path="url(#clip0_1445_915)">
<path d="M7.50095 10.6259C5.77695 10.6259 4.37695 9.22393 4.37695 7.50193C4.37695 5.77993 5.77895 4.37793 7.50095 4.37793C9.22295 4.37793 10.625 5.77993 10.625 7.50193C10.625 9.22393 9.22295 10.6259 7.50095 10.6259ZM7.50095 5.62593C6.46695 5.62593 5.62495 6.46793 5.62495 7.50193C5.62495 8.53593 6.46695 9.37593 7.50095 9.37593C8.53495 9.37593 9.37695 8.53393 9.37695 7.50193C9.37695 6.46993 8.53495 5.62593 7.50095 5.62593Z" fill="black"/>
<path d="M12.796 2.19629L11.916 3.07629C13.052 4.21029 13.754 5.77429 13.754 7.50229C13.754 10.9523 10.948 13.7583 7.498 13.7583C4.048 13.7583 1.244 10.9503 1.244 7.50029C1.244 5.77829 1.944 4.21629 3.074 3.08429L2.194 2.20429C0.84 3.56229 0 5.43429 0 7.50029C0 11.6363 3.364 15.0003 7.5 15.0003C11.636 15.0003 15 11.6363 15 7.50029C15 5.43029 14.158 3.55429 12.796 2.19629Z" fill="black"/>
<path d="M7.49219 2.5C8.18254 2.5 8.74219 1.94036 8.74219 1.25C8.74219 0.559644 8.18254 0 7.49219 0C6.80183 0 6.24219 0.559644 6.24219 1.25C6.24219 1.94036 6.80183 2.5 7.49219 2.5Z" fill="black"/>
</g>
<defs>
<clipPath id="clip0_1445_915">
<rect width="15" height="15" fill="white"/>
</clipPath>
</defs>
</svg>
