<svg width="15" height="15" viewBox="0 0 15 15" fill="none" xmlns="http://www.w3.org/2000/svg">
<g clip-path="url(#clip0_1445_938)">
<path d="M0.883883 0.000882164L0 0.884766L2.86661 3.75138L3.75049 2.86749L0.883883 0.000882164Z" fill="black"/>
<path d="M14.1166 -0.000399834L11.25 2.86621L12.1339 3.75009L15.0005 0.883484L14.1166 -0.000399834Z" fill="black"/>
<path d="M2.86661 11.2496L0 14.1162L0.883883 15.0001L3.75049 12.1335L2.86661 11.2496Z" fill="black"/>
<path d="M10.627 7.5C10.627 5.99 9.55095 4.728 8.12695 4.438V0H6.87695V4.438C5.45295 4.728 4.37695 5.99 4.37695 7.5C4.37695 9.01 5.45295 10.272 6.87695 10.562V15H8.12695V10.562C9.55095 10.272 10.627 9.01 10.627 7.5ZM7.50295 9.376C6.46895 9.376 5.62695 8.534 5.62695 7.5C5.62695 6.466 6.46895 5.624 7.50295 5.624C8.53695 5.624 9.37895 6.466 9.37895 7.5C9.37895 8.534 8.53695 9.376 7.50295 9.376Z" fill="black"/>
<path d="M12.1339 11.2509L11.25 12.1348L14.1166 15.0014L15.0005 14.1175L12.1339 11.2509Z" fill="black"/>
</g>
<defs>
<clipPath id="clip0_1445_938">
<rect width="15" height="15" fill="white"/>
</clipPath>
</defs>
</svg>
