<svg width="15" height="15" viewBox="0 0 15 15" fill="none" xmlns="http://www.w3.org/2000/svg">
<g clip-path="url(#clip0_1445_949)">
<path d="M7.5 0C3.358 0 0 3.358 0 7.5C0 11.642 3.358 15 7.5 15C11.642 15 15 11.642 15 7.5C15 3.358 11.642 0 7.5 0ZM7.5 13.75C4.048 13.75 1.25 10.952 1.25 7.5C1.25 4.048 4.048 1.25 7.5 1.25C10.952 1.25 13.75 4.048 13.75 7.5C13.75 10.952 10.952 13.75 7.5 13.75Z" fill="black"/>
<path d="M7.49992 2.5L3.16992 10H11.8299L7.49992 2.5ZM5.33592 8.75L7.49992 5L9.66392 8.75H5.33392H5.33592Z" fill="black"/>
</g>
<defs>
<clipPath id="clip0_1445_949">
<rect width="15" height="15" fill="white"/>
</clipPath>
</defs>
</svg>
