<svg width="20" height="20" viewBox="0 0 20 20" fill="none" xmlns="http://www.w3.org/2000/svg">
<g clip-path="url(#clip0_1453_1657)">
<path d="M3.75023 20.0005C5.82142 20.0005 7.50046 18.3214 7.50046 16.2502C7.50046 14.179 5.82142 12.5 3.75023 12.5C1.67903 12.5 0 14.179 0 16.2502C0 18.3214 1.67903 20.0005 3.75023 20.0005Z" fill="black"/>
<path d="M16.2502 20.0005C18.3214 20.0005 20.0005 18.3214 20.0005 16.2502C20.0005 14.179 18.3214 12.5 16.2502 12.5C14.179 12.5 12.5 14.179 12.5 16.2502C12.5 18.3214 14.179 20.0005 16.2502 20.0005Z" fill="black"/>
<path d="M3.75023 7.50046C5.82142 7.50046 7.50046 5.82142 7.50046 3.75023C7.50046 1.67903 5.82142 0 3.75023 0C1.67903 0 0 1.67903 0 3.75023C0 5.82142 1.67903 7.50046 3.75023 7.50046Z" fill="black"/>
<path d="M16.2502 7.50046C18.3214 7.50046 20.0005 5.82142 20.0005 3.75023C20.0005 1.67903 18.3214 0 16.2502 0C14.179 0 12.5 1.67903 12.5 3.75023C12.5 5.82142 14.179 7.50046 16.2502 7.50046Z" fill="black"/>
</g>
<defs>
<clipPath id="clip0_1453_1657">
<rect width="20" height="20" fill="white"/>
</clipPath>
</defs>
</svg>
