<svg width="20" height="20" viewBox="0 0 20 20" fill="none" xmlns="http://www.w3.org/2000/svg">
<g clip-path="url(#clip0_1453_1668)">
<path d="M6.16785 16.1658C9.57426 16.1658 12.3357 13.4043 12.3357 9.99793C12.3357 6.59152 9.57426 3.83008 6.16785 3.83008C2.76144 3.83008 0 6.59152 0 9.99793C0 13.4043 2.76144 16.1658 6.16785 16.1658Z" fill="black"/>
<path d="M16.7959 20C18.5654 20 20 18.5654 20 16.7959C20 15.0263 18.5654 13.5918 16.7959 13.5918C15.0263 13.5918 13.5918 15.0263 13.5918 16.7959C13.5918 18.5654 15.0263 20 16.7959 20Z" fill="black"/>
<path d="M16.7959 6.40816C18.5654 6.40816 20 4.97364 20 3.20408C20 1.43451 18.5654 0 16.7959 0C15.0263 0 13.5918 1.43451 13.5918 3.20408C13.5918 4.97364 15.0263 6.40816 16.7959 6.40816Z" fill="black"/>
</g>
<defs>
<clipPath id="clip0_1453_1668">
<rect width="20" height="20" fill="white"/>
</clipPath>
</defs>
</svg>
