<svg width="21" height="20" viewBox="0 0 21 20" fill="none" xmlns="http://www.w3.org/2000/svg">
<g clip-path="url(#clip0_1453_1677)">
<path d="M20.0365 0H0V10.0164H20.0365V0Z" fill="black"/>
<path d="M10.0156 10.0166H15.0275V15.0285L10.0156 10.0166Z" fill="black"/>
<path d="M6.8754 19.9998C7.90685 19.9998 8.74299 19.1637 8.74299 18.1322C8.74299 17.1008 7.90685 16.2646 6.8754 16.2646C5.84396 16.2646 5.00781 17.1008 5.00781 18.1322C5.00781 19.1637 5.84396 19.9998 6.8754 19.9998Z" fill="black"/>
<path d="M12.5297 19.9998C13.5611 19.9998 14.3973 19.1637 14.3973 18.1322C14.3973 17.1008 13.5611 16.2646 12.5297 16.2646C11.4983 16.2646 10.6621 17.1008 10.6621 18.1322C10.6621 19.1637 11.4983 19.9998 12.5297 19.9998Z" fill="black"/>
<path d="M18.1684 19.9998C19.1998 19.9998 20.036 19.1637 20.036 18.1322C20.036 17.1008 19.1998 16.2646 18.1684 16.2646C17.1369 16.2646 16.3008 17.1008 16.3008 18.1322C16.3008 19.1637 17.1369 19.9998 18.1684 19.9998Z" fill="black"/>
</g>
<defs>
<clipPath id="clip0_1453_1677">
<rect width="20.0365" height="20" fill="white"/>
</clipPath>
</defs>
</svg>
